<svg width="22" height="21" viewBox="0 0 22 21" fill="none" xmlns="http://www.w3.org/2000/svg">
<path d="M21.2767 8.30177H17.0168L13.9158 0.467827C13.7627 0.0810157 13.3394 -0.102304 12.9706 0.0581135C12.6017 0.218682 12.4267 0.66242 12.5798 1.04923L15.4507 8.30177H6.54933L9.42015 1.04923C9.57329 0.66242 9.39831 0.218632 9.02941 0.0581135C8.66064 -0.102405 8.23725 0.0810157 8.08416 0.467827L4.9832 8.30177H0.723251C0.323824 8.30177 0 8.64131 0 9.06013C0 9.47894 0.323824 9.81848 0.723251 9.81848H1.15817L2.57612 17.9497C2.88437 19.7172 4.35185 21 6.06543 21H15.9346C17.6482 21 19.1157 19.7172 19.4239 17.9497L20.8418 9.81848H21.2767C21.6762 9.81848 22 9.47894 22 9.06013C22 8.64131 21.6761 8.30177 21.2767 8.30177ZM18.0009 17.6768C17.8184 18.7236 16.9493 19.4832 15.9346 19.4832H6.06538C5.05061 19.4832 4.18155 18.7236 3.999 17.6768L2.63485 9.85432H19.365L18.0009 17.6768Z" fill="black"/>
</svg>
