<svg width="28" height="21" viewBox="0 0 28 21" fill="none" xmlns="http://www.w3.org/2000/svg">
<path d="M27.5252 9.05312L24.9447 4.7361C24.7887 4.476 24.5172 4.31702 24.2141 4.31702H17.2681V0.863404C17.2681 0.386589 16.9203 0 16.4435 0H0.902204C0.425389 0 0 0.386589 0 0.863404V17.2681C0 17.7449 0.425389 18.1315 0.902204 18.1315H4.47842C4.86458 19.6167 6.20496 20.7217 7.80944 20.7217C9.41386 20.7217 10.7542 19.6167 11.1405 18.1315H16.4435H18.2929C18.6791 19.6167 20.0195 20.7217 21.624 20.7217C23.2284 20.7217 24.5688 19.6167 24.9549 18.1315H26.8044C27.2812 18.1315 27.629 17.7449 27.629 17.2681V9.49745C27.6289 9.34106 27.6057 9.18759 27.5252 9.05312ZM1.72681 1.72681H15.5413V5.18043V16.4047H11.1404C10.7542 14.9195 9.41386 13.8145 7.80938 13.8145C6.20496 13.8145 4.86458 14.9195 4.47837 16.4047H1.72681V1.72681ZM7.80944 18.9949C6.8571 18.9949 6.08263 18.2204 6.08263 17.2681C6.08263 16.3158 6.85705 15.5413 7.80944 15.5413C8.76177 15.5413 9.53625 16.3158 9.53625 17.2681C9.53625 18.2204 8.76177 18.9949 7.80944 18.9949ZM21.6239 18.9949C20.6716 18.9949 19.8971 18.2204 19.8971 17.2681C19.8971 16.3158 20.6716 15.5413 21.6239 15.5413C22.5762 15.5413 23.3507 16.3158 23.3507 17.2681C23.3507 18.2204 22.5762 18.9949 21.6239 18.9949ZM25.9021 16.4047H24.9549C24.5687 14.9195 23.2283 13.8145 21.6239 13.8145C20.0194 13.8145 18.6791 14.9195 18.2929 16.4047H17.2681V6.04383H23.7251L25.9021 9.7365V16.4047Z" fill="black"/>
</svg>
