<svg width="26" height="26" viewBox="0 0 26 26" fill="none" xmlns="http://www.w3.org/2000/svg">
<path fill-rule="evenodd" clip-rule="evenodd" d="M0 4.70135C0 2.10486 2.10486 0 4.70135 0H20.3725C22.969 0 25.0739 2.10486 25.0739 4.70135V20.3725C25.0739 22.969 22.969 25.0739 20.3725 25.0739H4.70135C2.10486 25.0739 0 22.969 0 20.3725V4.70135ZM4.70135 12.5369C4.70135 8.20944 8.20944 4.70135 12.5369 4.70135C16.8644 4.70135 20.3725 8.20944 20.3725 12.5369C20.3725 16.8644 16.8644 20.3725 12.5369 20.3725C8.20944 20.3725 4.70135 16.8644 4.70135 12.5369ZM22.7232 3.91779C22.7232 4.78331 22.0216 5.48491 21.1561 5.48491C20.2906 5.48491 19.589 4.78331 19.589 3.91779C19.589 3.05227 20.2906 2.35067 21.1561 2.35067C22.0216 2.35067 22.7232 3.05227 22.7232 3.91779Z" fill="white"/>
<path d="M7.83558 12.5369C7.83558 9.94043 9.94043 7.83558 12.5369 7.83558C15.1334 7.83558 17.2383 9.94043 17.2383 12.5369C17.2383 15.1334 15.1334 17.2383 12.5369 17.2383C9.94043 17.2383 7.83558 15.1334 7.83558 12.5369Z" fill="white"/>
</svg>
