<svg width="19" height="24" viewBox="0 0 19 24" fill="none" xmlns="http://www.w3.org/2000/svg">
<path d="M9.5 0C14.7467 0 19 4.15153 19 9.27273C19 12.5297 17.4601 15.8232 14.8857 19.037C13.972 20.1776 12.9783 21.2411 11.9603 22.2098C11.8765 22.2896 11.794 22.3673 11.713 22.4428L11.2459 22.8705L10.8195 23.2456L10.4387 23.5666L10.2061 23.7547C9.7979 24.0794 9.21295 24.082 8.80181 23.7609L8.55862 23.5645L8.1795 23.2448L7.75388 22.8703L7.28697 22.4428L7.03966 22.2098C6.02166 21.2411 5.02798 20.1776 4.11429 19.037C1.53989 15.8232 0 12.5297 0 9.27273C0 4.15153 4.25328 0 9.5 0ZM9.5 2.18182C5.4878 2.18182 2.23529 5.35651 2.23529 9.27273C2.23529 11.9522 3.57959 14.8273 5.87521 17.6931C6.72276 18.7511 7.6499 19.7434 8.6 20.6475L9.0501 21.0678C9.19839 21.2035 9.3469 21.3395 9.5 21.4702L9.94985 21.0678L10.4 20.6475C11.3501 19.7434 12.2772 18.7511 13.1248 17.6931C15.4204 14.8273 16.7647 11.9522 16.7647 9.27273C16.7647 5.35651 13.5122 2.18182 9.5 2.18182ZM9.5 4.90909C11.969 4.90909 13.9706 6.86276 13.9706 9.27273C13.9706 11.6827 11.969 13.6364 9.5 13.6364C7.03097 13.6364 5.02941 11.6827 5.02941 9.27273C5.02941 6.86276 7.03097 4.90909 9.5 4.90909ZM9.5 7.09091C8.26549 7.09091 7.26471 8.06775 7.26471 9.27273C7.26471 10.4777 8.26549 11.4545 9.5 11.4545C10.7345 11.4545 11.7353 10.4777 11.7353 9.27273C11.7353 8.06775 10.7345 7.09091 9.5 7.09091Z" fill="white"/>
</svg>
