<svg width="25" height="28" viewBox="0 0 25 28" fill="none" xmlns="http://www.w3.org/2000/svg">
<path d="M21.5675 27.7245C21.7202 27.7246 21.8682 27.672 21.9865 27.5756L24.6898 25.3802C24.8266 25.2689 24.9138 25.1079 24.9319 24.9324C24.9501 24.757 24.8979 24.5815 24.7867 24.4445L17.998 16.087C19.3393 14.3231 20.0581 12.1643 20.0421 9.9484C20.026 7.73249 19.2759 5.58442 17.9091 3.84018C16.5423 2.09594 14.6359 0.85391 12.4881 0.308397C10.3403 -0.237117 8.07232 -0.0553432 6.03884 0.825258C4.00536 1.70586 2.32115 3.23561 1.24958 5.17527C0.17802 7.11492 -0.220431 9.35506 0.116586 11.5452C0.453603 13.7354 1.50707 15.7521 3.11219 17.2799C4.71731 18.8077 6.78354 19.7603 8.98769 19.9889C9.33681 20.0252 9.68758 20.0433 10.0386 20.0433C11.4945 20.0444 12.9328 19.7248 14.2512 19.1073L21.0512 27.4786C21.1135 27.5555 21.1922 27.6174 21.2816 27.66C21.3709 27.7025 21.4686 27.7246 21.5675 27.7245ZM9.12457 18.6663C7.12506 18.4593 5.25923 17.5653 3.84492 16.1368C2.43061 14.7083 1.55536 12.8336 1.36831 10.8322C1.18126 8.8307 1.69397 6.82627 2.8191 5.16045C3.94423 3.49462 5.61215 2.27046 7.53867 1.69652C9.46519 1.12259 11.5311 1.2344 13.3844 2.01291C15.2378 2.79142 16.7638 4.18845 17.7026 5.96598C18.6413 7.74351 18.9347 9.79156 18.5328 11.7612C18.1308 13.7308 17.0583 15.5 15.4981 16.7676C14.614 17.4897 13.5955 18.0293 12.5015 18.3552C11.4075 18.6811 10.2597 18.7868 9.12457 18.6663ZM16.3364 17.8001C16.6057 17.5809 16.8637 17.348 17.1093 17.1025L23.3352 24.767L21.664 26.1241L15.4328 18.4529C15.7455 18.2517 16.0472 18.0338 16.3364 17.8001Z" fill="#272525"/>
</svg>
