<svg width="24" height="24" viewBox="0 0 24 24" fill="none" xmlns="http://www.w3.org/2000/svg">
<path fill-rule="evenodd" clip-rule="evenodd" d="M9.74647 9.3063C9.80623 9.49777 9.89334 9.74668 10.015 10.0313C10.3151 10.7333 10.8112 11.6192 11.5959 12.404C12.3805 13.1886 13.2643 13.6826 13.9635 13.9805C14.2467 14.1012 14.4942 14.1873 14.6846 14.2464L17.3252 12.9262C18.0977 12.5399 19.011 12.5599 19.7658 12.9795L22.6553 14.5861C23.4854 15.0475 24 15.9226 24 16.872V20.1893C24 22.6961 21.6244 24.6482 19.1043 23.7978C15.7894 22.6793 10.435 20.4901 6.97251 17.0275C3.50993 13.565 1.32069 8.2105 0.202179 4.89564C-0.64813 2.37555 1.3038 0 3.81065 0H7.12747C8.07766 0 8.95295 0.515349 9.4141 1.34586L11.0138 4.22732C11.4326 4.98178 11.4524 5.89457 11.0664 6.66658L9.74647 9.3063ZM3.81065 2.6154C2.93883 2.6154 2.45045 3.37824 2.68034 4.05957C3.7804 7.31975 5.81533 12.1716 8.82188 15.1781C11.8284 18.1846 16.6803 20.2196 19.9405 21.3196C20.6217 21.5495 21.3846 21.0612 21.3846 20.1893V16.872L18.495 15.2655L15.4134 16.8063C15.1564 16.9347 14.8643 16.975 14.5822 16.9208L14.5805 16.9205L14.5786 16.9202L14.5741 16.9193L14.5626 16.917L14.5297 16.9101C14.5034 16.9045 14.4685 16.8967 14.4258 16.8866C14.3403 16.8664 14.2229 16.8367 14.0792 16.7952C13.7922 16.7124 13.3968 16.582 12.9381 16.3866C12.0259 15.9978 10.831 15.3378 9.74657 14.2534C8.66233 13.1692 8.0006 11.9727 7.61016 11.0595C7.41382 10.6002 7.28249 10.2041 7.19894 9.91675C7.15709 9.77279 7.12698 9.65538 7.10656 9.56984C7.09634 9.52704 7.08853 9.4921 7.08286 9.46584L7.07593 9.43296L7.07361 9.42155L7.07273 9.41702L7.07235 9.41517C7.07235 9.41517 7.07202 9.4134 8.35568 9.16372L7.07202 9.4135C7.01695 9.13037 7.05703 8.83692 7.18602 8.57894L8.72703 5.49685L7.12752 2.61557L3.81065 2.6154Z" fill="white"/>
</svg>
