<svg width="21" height="21" viewBox="0 0 21 21" fill="none" xmlns="http://www.w3.org/2000/svg">
<path d="M10.3664 9.78572C7.6669 9.78572 5.47095 7.59091 5.47095 4.89286C5.47095 2.19481 7.6669 0 10.3664 0C13.0658 0 15.2618 2.19481 15.2618 4.89286C15.2618 7.59091 13.0658 9.78572 10.3664 9.78572ZM10.3664 1.7254C8.6189 1.7254 7.19725 3.14632 7.19725 4.89286C7.19725 6.6394 8.6189 8.06032 10.3664 8.06032C12.1138 8.06032 13.5355 6.6394 13.5355 4.89286C13.5355 3.14632 12.1138 1.7254 10.3664 1.7254Z" fill="black"/>
<path d="M19.8693 20.7217H0.863149C0.385032 20.7217 0 20.3369 0 19.859C0 17.0383 1.10009 14.3952 3.09295 12.4161C4.37921 11.139 6.19436 10.4073 8.06875 10.4073H12.6637C14.5424 10.4073 16.3533 11.139 17.6395 12.4161C19.6324 14.3952 20.7325 17.0383 20.7325 19.859C20.7325 20.3369 20.3475 20.7217 19.8693 20.7217ZM1.76861 18.9963H18.9639C18.7693 16.9664 17.8807 15.0888 16.421 13.6425C15.4563 12.6867 14.0854 12.137 12.6637 12.137H8.06875C6.64286 12.137 5.27621 12.6867 4.31151 13.6425C2.85178 15.0888 1.96324 16.9664 1.76861 18.9963Z" fill="black"/>
</svg>
