<svg width="42" height="26" viewBox="0 0 42 26" fill="none" xmlns="http://www.w3.org/2000/svg">
<path fill-rule="evenodd" clip-rule="evenodd" d="M39.6285 2.63396C39.9217 1.71228 39.6285 1.04193 38.3297 1.04193H34.0143C32.9251 1.04193 32.4223 1.62843 32.1291 2.25698C32.1291 2.25698 29.9085 7.61969 26.8082 11.097C25.8026 12.1025 25.3418 12.4377 24.7972 12.4377C24.5038 12.4377 24.1269 12.1025 24.1269 11.1809V2.59203C24.1269 1.50277 23.7917 1 22.8699 1H16.0827C15.4124 1 14.9935 1.50277 14.9935 2.00553C14.9935 3.05299 16.5436 3.30431 16.7111 6.23705V12.6053C16.7111 13.9879 16.4598 14.2393 15.9151 14.2393C14.4488 14.2393 10.8876 8.83462 8.75087 2.67589C8.33184 1.46084 7.91293 1 6.82366 1H2.46636C1.20949 1 1 1.58662 1 2.21505C1 3.34624 2.46636 9.04413 7.82907 16.5855C11.3904 21.7387 16.4598 24.5039 21.0265 24.5039C23.7917 24.5039 24.1269 23.8754 24.1269 22.8281V18.9317C24.1269 17.6748 24.3782 17.4654 25.258 17.4654C25.8865 17.4654 27.0177 17.8004 29.5733 20.2723C32.506 23.2051 33.0088 24.5458 34.6428 24.5458H38.9581C40.215 24.5458 40.8016 23.9174 40.4664 22.7023C40.0893 21.4874 38.6649 19.7278 36.8214 17.6328C35.8159 16.4598 34.3076 15.1611 33.8468 14.5325C33.2183 13.6947 33.3859 13.3595 33.8468 12.6053C33.8049 12.6053 39.0838 5.14779 39.6285 2.63396Z" stroke="white" stroke-width="2"/>
</svg>
