<svg width="26" height="23" viewBox="0 0 26 23" fill="none" xmlns="http://www.w3.org/2000/svg">
<path d="M18.1952 0.900491C16.2018 0.889319 14.3065 1.79605 13.0005 3.37763C11.7018 1.78508 9.80094 0.875776 7.8044 0.900491C3.986 0.900847 0.9 4.17076 0.9 8.19259C0.9 9.92156 1.61344 11.6327 2.68036 13.226C3.7477 14.8199 5.17369 16.3032 6.61083 17.5786C9.46828 20.1146 12.3815 21.839 12.6428 21.9873C12.8593 22.1376 13.1407 22.1376 13.3572 21.9873C13.6179 21.8397 16.5313 20.1391 19.389 17.6149C20.8262 16.3454 22.2523 14.865 23.3197 13.2665C24.3868 11.6685 25.1 9.94537 25.1 8.19259C25.1 4.17064 22.0138 0.900652 18.1952 0.900491Z" fill="#FF007A" stroke="#FF007A" stroke-width="0.2"/>
</svg>
