<svg width="36" height="27" viewBox="0 0 36 27" fill="none" xmlns="http://www.w3.org/2000/svg">
<path d="M33.959 4.77812C33.5719 3.29091 32.4312 2.1198 30.9828 1.72234C28.3579 1 17.8313 1 17.8313 1C17.8313 1 7.30464 1 4.67954 1.72234C3.2311 2.1198 2.0904 3.29091 1.70328 4.77812C1 7.47351 1 13.0975 1 13.0975C1 13.0975 1 18.7212 1.70328 21.4168C2.0904 22.904 3.2311 24.0751 4.67954 24.4728C7.30464 25.1949 17.8313 25.1949 17.8313 25.1949C17.8313 25.1949 28.3579 25.1949 30.9828 24.4728C32.4312 24.0751 33.5719 22.904 33.959 21.4168C34.6625 18.7212 34.6625 13.0975 34.6625 13.0975C34.6625 13.0975 34.6625 7.47351 33.959 4.77812Z" stroke="white" stroke-width="2"/>
<path d="M14.6755 18.8833V8.36377L23.0912 13.6237L14.6755 18.8833Z" fill="white"/>
</svg>
